<svg xmlns="http://www.w3.org/2000/svg" version="1.1" xmlns:xlink="http://www.w3.org/1999/xlink" xmlns:svgjs="http://svgjs.dev/svgjs" width="1000" height="623" viewBox="0 0 1000 623"><g transform="matrix(1,0,0,1,-0.6060606060606233,0.2522267206477409)"><svg viewBox="0 0 396 247" data-background-color="#ffffff" preserveAspectRatio="xMidYMid meet" height="623" width="1000" xmlns="http://www.w3.org/2000/svg" xmlns:xlink="http://www.w3.org/1999/xlink"><g id="tight-bounds" transform="matrix(1,0,0,1,0.2400000000000091,-0.09999999999999432)"><svg viewBox="0 0 395.52 247.2" height="247.2" width="395.52"><g><svg viewBox="0 0 395.52 247.2" height="247.2" width="395.52"><g transform="matrix(1,0,0,1,43.576923076923066,0)"><svg viewBox="0 0 308.36615384615385 247.2" height="247.2" width="308.36615384615385"><g><svg viewBox="0 0 308.36615384615385 247.2" height="247.2" width="308.36615384615385"><g><svg viewBox="0 0 308.36615384615385 247.2" height="247.2" width="308.36615384615385"><g><svg viewBox="0 0 308.36615384615385 247.2" height="247.2" width="308.36615384615385"><g><svg viewBox="0 0 308.36615384615385 247.2" height="247.2" width="308.36615384615385"><g><svg viewBox="0 0 308.36615384615385 247.2" height="247.2" width="308.36615384615385"><g transform="matrix(1,0,0,1,0,0)"><svg width="308.36615384615385" viewBox="2.9800000190734863 -37.5 47.51000213623047 38.09000015258789" height="247.2" data-palette-color="#ed1703"><path d="M24.37-23.54L24.37-23.54Q23.93-22.61 23.17-21.78 22.41-20.95 21.73-20.21L21.73-20.21Q21.19-19.68 20.8-19.04 20.41-18.41 19.92-17.87L19.92-17.87Q19.53-17.43 19.14-17.07 18.75-16.7 18.41-16.26L18.41-16.26Q18.16-16.06 17.94-15.87 17.72-15.67 17.53-15.38L17.53-15.38Q18.26-13.82 19.26-12.55 20.26-11.28 21.34-10.01L21.34-10.01Q21.88-9.38 22.41-8.81 22.95-8.25 23.34-7.62L23.34-7.62Q23.68-6.88 24.05-6.52 24.41-6.15 24.71-5.76L24.71-5.76Q25-5.27 25.22-4.91 25.44-4.54 25.83-4.2L25.83-4.2Q25.83-3.96 26.12-3.74 26.42-3.52 26.51-3.27L26.51-3.27Q26.51-3.03 26.54-2.88 26.56-2.73 26.56-2.64L26.56-2.64Q26.42-2.25 26.05-1.98 25.68-1.71 25.39-1.42L25.39-1.42Q24.9-1.42 24.56-1.12 24.22-0.83 23.63-0.83L23.63-0.83Q23.39-0.63 23.24-0.42 23.1-0.2 22.85 0L22.85 0Q22.46 0 22.14 0.22 21.83 0.44 21.44 0.54L21.44 0.54Q20.95 0.24 20.65-0.22 20.36-0.68 19.87-0.93L19.87-0.93Q19.82-1.17 19.7-1.34 19.58-1.51 19.48-1.71L19.48-1.71Q18.65-2.64 17.92-3.66 17.19-4.69 16.46-5.71L16.46-5.71Q16.06-6.15 15.65-6.57 15.23-6.98 14.84-7.47L14.84-7.47Q14.6-7.76 14.36-8.15 14.11-8.54 13.82-8.89L13.82-8.89Q13.48-9.18 13.23-9.57 12.99-9.96 12.65-10.21L12.65-10.21Q12.21-9.96 11.87-9.57 11.52-9.18 11.08-8.89L11.08-8.89Q10.69-8.54 10.33-8.2 9.96-7.86 9.57-7.57L9.57-7.57Q9.47-6.45 9.47-5.4 9.47-4.35 9.47-3.32L9.47-3.32Q9.47-2.49 9.45-1.73 9.42-0.98 9.23-0.2L9.23-0.2Q8.98-0.15 8.76-0.46 8.54-0.78 8.3-0.83L8.3-0.83Q8.11-0.78 7.98-0.63 7.86-0.49 7.62-0.59L7.62-0.59Q7.37-0.34 6.88-0.15L6.88-0.15Q6.64-0.15 6.35-0.07 6.05 0 5.81 0L5.81 0Q5.42 0 5.27-0.1L5.27-0.1Q4.79 0.24 4.47 0.27 4.15 0.29 3.96 0.29L3.96 0.29Q3.86-0.05 3.76-0.37 3.66-0.68 3.61-1.07L3.61-1.07Q3.47-1.27 3.39-1.51 3.32-1.76 3.22-2L3.22-2Q3.27-2.15 3.27-2.34 3.27-2.54 3.27-2.73L3.27-2.73Q3.27-3.56 3.22-4.35 3.17-5.13 3.27-5.96L3.27-5.96Q3.17-6.2 3.13-6.45 3.08-6.69 3.08-6.93L3.08-6.93Q3.08-7.08 3.1-7.28 3.13-7.47 3.22-7.57L3.22-7.57Q3.08-8.2 3.05-8.91 3.03-9.62 3.03-10.25L3.03-10.25Q3.03-10.6 3.1-10.96 3.17-11.33 3.17-11.72L3.17-11.72Q3.17-12.55 3.08-13.33 2.98-14.11 2.98-14.89L2.98-14.89Q3.03-15.43 3.03-15.72L3.03-15.72Q3.03-16.02 3.08-16.31 3.13-16.6 3.03-16.89L3.03-16.89Q3.08-17.14 3.15-17.26 3.22-17.38 3.22-17.63L3.22-17.63Q3.22-18.26 3.25-18.87 3.27-19.48 3.27-20.17L3.27-20.17Q3.27-20.65 3.3-21.12 3.32-21.58 3.32-22.12L3.32-22.12Q3.32-22.56 3.39-22.95 3.47-23.34 3.52-23.73L3.52-23.73Q3.56-24.17 3.56-24.58 3.56-25 3.56-25.39L3.56-25.39Q3.56-26.42 3.56-27.47 3.56-28.52 3.47-29.54L3.47-29.54Q3.42-29.79 3.37-30.08 3.32-30.37 3.32-30.66L3.32-30.66Q3.22-31.59 3.17-32.57 3.13-33.54 2.98-34.52L2.98-34.52Q3.08-34.67 3.08-34.84 3.08-35.01 3.08-35.16L3.08-35.16Q3.08-35.4 3.08-35.62 3.08-35.84 3.03-36.08L3.03-36.08Q3.13-36.18 3.22-36.3 3.32-36.43 3.42-36.52L3.42-36.52Q3.71-36.52 4.03-36.5 4.35-36.47 4.59-36.28L4.59-36.28Q4.83-36.38 5.15-36.5 5.47-36.62 5.71-36.62L5.71-36.62Q6.1-36.62 6.3-36.43L6.3-36.43Q6.54-36.52 6.57-36.65 6.59-36.77 6.93-36.77L6.93-36.77Q7.57-36.82 7.84-36.82 8.11-36.82 8.35-36.87L8.35-36.87Q8.5-36.77 8.59-36.62 8.69-36.47 8.79-36.33L8.79-36.33Q9.86-35.94 10.52-35.23 11.18-34.52 12.01-34.03L12.01-34.03Q12.21-33.89 12.4-33.79 12.6-33.69 12.79-33.59L12.79-33.59Q13.23-33.3 13.67-32.96 14.11-32.62 14.6-32.37L14.6-32.37Q15.09-32.13 15.16-32.1 15.23-32.08 15.28-31.98L15.28-31.98Q16.36-31.59 17.21-30.93 18.07-30.27 19.04-29.74L19.04-29.74Q19.38-29.54 19.9-29.35 20.41-29.15 20.92-28.93 21.44-28.71 21.9-28.47 22.36-28.22 22.61-27.93L22.61-27.93Q23.14-27.39 23.56-27.17 23.97-26.95 24.37-26.66L24.37-26.66 24.41-25.34Q24.41-25 24.34-24.71 24.27-24.41 24.27-24.07L24.27-24.07Q24.27-23.83 24.37-23.54ZM17.68-24.8L17.68-24.8Q17.14-25.1 16.6-25.37 16.06-25.63 15.67-26.12L15.67-26.12Q15.33-26.22 14.45-26.59 13.57-26.95 12.67-27.37 11.77-27.78 11.01-28.1 10.25-28.42 10.16-28.42L10.16-28.42Q10.01-28.37 10.01-27.78 10.01-27.2 10.01-26.51 10.01-25.83 10.01-25.2 10.01-24.56 10.01-24.41L10.01-24.41Q10.01-23.49 9.96-22.61 9.91-21.73 9.81-20.8L9.81-20.8Q9.72-20.65 9.67-20.53 9.62-20.41 9.57-20.26L9.57-20.26Q9.47-19.58 9.47-18.46 9.47-17.33 9.47-16.65L9.47-16.65Q9.47-16.31 9.47-16.02 9.47-15.72 9.52-15.33L9.52-15.33Q9.77-15.33 9.86-15.45 9.96-15.58 10.21-15.67L10.21-15.67Q10.84-16.36 11.47-16.99 12.11-17.63 12.79-18.31L12.79-18.31Q13.09-18.6 13.38-18.95 13.67-19.29 14.01-19.53L14.01-19.53Q14.26-19.82 14.45-20.09 14.65-20.36 14.89-20.61L14.89-20.61Q15.58-21.34 16.31-22.05 17.04-22.75 17.53-23.63L17.53-23.63Q17.87-23.88 18.16-24.41L18.16-24.41Q17.82-24.46 17.68-24.8ZM48.53-27.49L48.53-27.49Q48.53-26.95 48.75-26.59 48.97-26.22 48.97-25.93L48.97-25.93Q48.87-25.44 49.17-24.78 49.46-24.12 49.46-23.44L49.46-23.44Q49.36-23.14 48.7-22.68 48.04-22.22 47.24-21.68 46.43-21.14 45.68-20.63 44.92-20.12 44.63-19.82L44.63-19.82Q44.87-19.43 45.24-19.19 45.6-18.95 45.94-18.7L45.94-18.7Q46.24-18.46 46.8-17.99 47.36-17.53 47.97-16.99 48.58-16.46 49.09-15.97 49.61-15.48 49.75-15.23L49.75-15.23Q49.85-15.19 49.92-14.89 50-14.6 50.05-14.23 50.1-13.87 50.12-13.53 50.14-13.18 50.14-13.09L50.14-13.09Q50.1-12.55 50.17-12.3 50.24-12.06 50.31-11.79 50.39-11.52 50.44-11.28 50.49-11.04 50.49-11.04L50.49-11.04Q50.49-10.74 50.22-10.5 49.95-10.25 49.7-10.06L49.7-10.06Q49.46-9.86 49.24-9.67 49.02-9.47 48.78-9.23L48.78-9.23Q48.48-8.98 48.12-8.76 47.75-8.54 47.46-8.3L47.46-8.3Q47.26-8.2 47.12-8.03 46.97-7.86 46.82-7.76L46.82-7.76Q46.38-7.37 45.85-7.01 45.31-6.64 44.82-6.35L44.82-6.35Q44.28-6.01 43.8-5.64 43.31-5.27 42.77-4.88L42.77-4.88Q42.04-4.44 41.33-4.03 40.62-3.61 39.94-3.17L39.94-3.17Q39.6-2.93 39.28-2.69 38.96-2.44 38.62-2.25L38.62-2.25Q37.64-1.71 36.67-1.12 35.69-0.54 34.76 0.15L34.76 0.15Q33.98 0.34 33.64 0.46 33.3 0.59 32.96 0.59L32.96 0.59Q32.66 0.59 32.59 0.37 32.52 0.15 32.32 0.15L32.32 0.15Q31.59 0.24 31.52 0.17 31.44 0.1 31.3 0L31.3 0Q30.56 0.1 30.08 0L30.08 0Q29.93-0.24 29.88-0.61 29.83-0.98 29.59-1.22L29.59-1.22Q29.68-1.71 29.61-2.15 29.54-2.59 29.64-3.03L29.64-3.03Q29.49-3.61 29.49-4.1L29.49-4.1Q29.49-4.74 29.64-5.42L29.64-5.42Q29.49-5.86 29.49-6.3L29.49-6.3Q29.49-6.69 29.54-7.08 29.59-7.47 29.59-7.86L29.59-7.86Q29.59-8.35 29.39-8.74L29.39-8.74Q29.39-9.62 29.37-10.47 29.34-11.33 29.34-12.21L29.34-12.21Q29.34-12.6 29.34-12.99 29.34-13.38 29.39-13.82L29.39-13.82Q29.34-14.06 29.34-14.55L29.34-14.55Q29.34-14.84 29.44-15.06 29.54-15.28 29.54-15.53L29.54-15.53Q29.54-16.06 29.47-16.55 29.39-17.04 29.39-17.58L29.39-17.58Q29.39-18.07 29.47-18.51 29.54-18.95 29.54-19.43L29.54-19.43Q29.39-19.63 29.34-19.87 29.29-20.12 29.29-20.36L29.29-20.36Q29.29-20.56 29.39-20.95L29.39-20.95Q29.39-21.34 29.34-21.78 29.29-22.22 29.29-22.61L29.29-22.61Q29.29-22.8 29.32-22.95 29.34-23.1 29.39-23.29L29.39-23.29Q29.29-23.63 29.29-23.97 29.29-24.32 29.29-24.66L29.29-24.66Q29.29-25.1 29.34-25.56 29.39-26.03 29.39-26.46L29.39-26.46Q29.34-27.2 29.42-27.61 29.49-28.03 29.54-28.47L29.54-28.47 29.54-31.25Q29.54-31.64 29.44-32.1 29.34-32.57 29.34-33.01L29.34-33.01Q29.34-33.25 29.39-33.74 29.44-34.23 29.54-34.47L29.54-34.47Q30.22-35.5 31.15-35.64L31.15-35.64Q31.35-35.74 31.44-35.91 31.54-36.08 31.88-36.08L31.88-36.08Q32.47-36.57 32.66-36.84 32.86-37.11 33.15-37.35L33.15-37.35Q33.3-37.35 33.42-37.43 33.54-37.5 33.74-37.5L33.74-37.5Q34.08-37.4 34.3-37.3 34.52-37.21 34.76-37.16L34.76-37.16Q35.74-36.43 36.69-35.72 37.64-35.01 38.62-34.23L38.62-34.23Q39.06-33.84 39.48-33.45 39.89-33.06 40.33-32.71L40.33-32.71Q40.57-32.57 40.87-32.42 41.16-32.28 41.4-32.08L41.4-32.08Q41.94-31.74 42.48-31.37 43.02-31.01 43.55-30.66L43.55-30.66 47.07-28.47Q47.46-28.22 47.82-27.98 48.19-27.73 48.53-27.49ZM41.55-25.39L41.55-25.39Q40.82-25.73 40.16-26.22 39.5-26.71 38.77-26.95L38.77-26.95Q38.38-27.34 37.94-27.49 37.5-27.64 37.11-27.93L37.11-27.93Q36.67-28.32 36.33-28.61 35.98-28.91 35.45-29.15L35.45-29.15Q35.2-27.64 35.08-26.2 34.96-24.76 34.96-23.29L34.96-23.29Q34.96-21.78 35.25-20.41L35.25-20.41Q35.79-20.65 36.28-20.95 36.77-21.24 37.25-21.53L37.25-21.53Q37.45-21.63 37.62-21.73 37.79-21.83 38.03-21.92L38.03-21.92Q38.28-22.12 38.52-22.31 38.77-22.51 39.01-22.66L39.01-22.66Q39.55-23.05 40.06-23.36 40.57-23.68 41.11-24.07L41.11-24.07Q41.35-24.27 41.65-24.39 41.94-24.51 42.23-24.76L42.23-24.76Q42.19-24.95 41.92-25.07 41.65-25.2 41.55-25.39ZM40.13-16.26L40.13-16.26Q39.99-16.26 39.84-16.33 39.69-16.41 39.5-16.41L39.5-16.41Q38.91-16.02 38.4-15.75 37.89-15.48 37.35-15.14L37.35-15.14Q37.11-14.99 36.86-14.79 36.62-14.6 36.37-14.5L36.37-14.5Q35.74-14.11 35.4-13.84 35.06-13.57 34.86-13.18L34.86-13.18Q34.96-11.82 34.93-10.45 34.91-9.08 34.91-7.67L34.91-7.67Q34.91-7.42 35.06-7.13L35.06-7.13Q35.5-7.18 36.62-7.79 37.74-8.4 38.99-9.18 40.23-9.96 41.38-10.69 42.53-11.43 43.06-11.77L43.06-11.77Q43.45-11.87 43.97-12.16 44.48-12.45 44.58-12.84L44.58-12.84Q43.65-13.92 42.43-14.62 41.21-15.33 40.13-16.26Z" opacity="1" transform="matrix(1,0,0,1,0,0)" fill="#ed1703" class="undefined-text-0" data-fill-palette-color="primary" id="text-0"></path></svg></g></svg></g></svg></g></svg></g><g></g></svg></g></svg></g></svg></g></svg></g><defs></defs></svg><rect width="395.52" height="247.2" fill="none" stroke="none" visibility="hidden"></rect></g></svg></g></svg>